<?xml version="1.0" encoding="utf-8"?>
<!-- Generator: Adobe Illustrator 17.0.0, SVG Export Plug-In . SVG Version: 6.00 Build 0)  -->
<!DOCTYPE svg PUBLIC "-//W3C//DTD SVG 1.1//EN" "http://www.w3.org/Graphics/SVG/1.1/DTD/svg11.dtd">
<svg version="1.1" id="图层_1" xmlns="http://www.w3.org/2000/svg" xmlns:xlink="http://www.w3.org/1999/xlink" x="0px" y="0px"
	 width="20.124px" height="27.867px" viewBox="0 0 20.124 27.867" enable-background="new 0 0 20.124 27.867" xml:space="preserve">
<g>
	<g>
		<path fill="#CCCCCC" d="M19.866,13.466c-0.444,0.604-1.075,1.049-1.8,1.289c0.064-0.75,0.107-1.511,0.124-2.283
			c0.006-0.263,0.025-0.521,0.025-0.787c0-3.614-0.554-7.018-1.514-10.051c-0.011-0.035-0.022-0.072-0.033-0.107
			c-0.265,1.383-0.743,2.685-1.37,3.899c-1.446,2.8-3.752,5.082-6.595,6.454c0.034-0.264,0.058-0.532,0.058-0.806
			c0-0.007-0.002-0.014-0.002-0.021c-0.465,0.58-1.027,1.067-1.648,1.474c-0.497,0.325-1.029,0.602-1.596,0.808
			c-0.017,0.006-0.033,0.012-0.05,0.018c-1.119,0.476-2.07,1.241-2.813,2.18c-0.643,0.812-1.135,1.751-1.389,2.79
			c-0.136,0.555-0.228,1.127-0.228,1.724c0,1.526,0.474,2.94,1.278,4.109c-0.222-0.694-0.369-1.426-0.369-2.2
			c0-0.571,0.081-1.118,0.205-1.647c0.476-2.642,2.68-4.723,5.501-5.194c1.328-0.369,2.575-0.92,3.685-1.658
			c1.944-1.292,3.48-3.099,4.437-5.207c0.104,0.866,0.186,1.742,0.22,2.64c0.016,0.415,0.042,0.827,0.042,1.248
			c0,2.038-0.2,4.001-0.548,5.872c0.775-0.078,1.466-0.403,2.019-0.887c0.055,0.394,0.12,0.786,0.12,1.196
			c0,3.029-1.496,5.693-3.774,7.345c-1.498,1.087-3.325,1.746-5.317,1.746c-1.111,0-2.162-0.228-3.146-0.593
			c-0.003-0.001-0.006-0.001-0.008-0.002c0.009,0.005,0.019,0.008,0.029,0.013c0.6,0.33,1.248,0.589,1.947,0.736
			c0.037,0.008,0.069,0.024,0.106,0.031c0.012,0.003,0.025,0.004,0.037,0.007c0.701,0.17,1.427,0.264,2.173,0.264
			c5.774,0,10.454-5.291,10.454-11.818C20.124,15.161,20.03,14.298,19.866,13.466z"/>
	</g>
	<g>
		<path fill="#EA5219" d="M3.858,21.792v-3.904h0.789v1.537H6.19v-1.537h0.789v3.904H6.19v-1.707H4.646v1.707H3.858z"/>
		<path fill="#EA5219" d="M7.634,19.864c0-0.397,0.06-0.731,0.178-1.001c0.089-0.199,0.21-0.377,0.364-0.535
			c0.153-0.158,0.321-0.275,0.504-0.352c0.244-0.103,0.524-0.154,0.842-0.154c0.575,0,1.036,0.178,1.381,0.535
			c0.346,0.357,0.519,0.853,0.519,1.489c0,0.63-0.172,1.124-0.515,1.48c-0.343,0.355-0.801,0.533-1.374,0.533
			c-0.58,0-1.042-0.177-1.385-0.531C7.805,20.974,7.634,20.486,7.634,19.864z M8.447,19.838c0,0.442,0.102,0.777,0.306,1.005
			s0.464,0.342,0.777,0.342c0.314,0,0.572-0.113,0.774-0.339c0.201-0.227,0.302-0.566,0.302-1.019c0-0.448-0.098-0.781-0.294-1.001
			s-0.457-0.33-0.782-0.33c-0.324,0-0.586,0.111-0.785,0.334S8.447,19.389,8.447,19.838z"/>
		<path fill="#EA5219" d="M12.915,21.792v-3.244h-1.158v-0.661h3.103v0.661h-1.155v3.244H12.915z"/>
	</g>
	<g>
		<g>
			<defs>
				<path id="SVGID_1_" d="M18.957,12.442c-0.444,0.604-1.075,1.049-1.8,1.289c0.064-0.75,0.107-1.511,0.124-2.283
					c0.006-0.263,0.025-0.521,0.025-0.787c0-3.614-0.554-7.018-1.514-10.051c-0.011-0.035-0.022-0.072-0.033-0.107
					c-0.265,1.383-0.743,2.685-1.37,3.899c-1.446,2.8-3.752,5.082-6.595,6.454c0.034-0.264,0.058-0.532,0.058-0.806
					c0-0.007-0.002-0.014-0.002-0.021c-0.465,0.58-1.027,1.067-1.648,1.474c-0.497,0.325-1.029,0.602-1.596,0.808
					c-0.017,0.006-0.033,0.012-0.05,0.018c-1.119,0.476-2.07,1.241-2.813,2.18c-0.643,0.812-1.135,1.751-1.389,2.79
					c-0.136,0.555-0.228,1.127-0.228,1.724c0,1.526,0.474,2.94,1.278,4.109c-0.222-0.694-0.369-1.426-0.369-2.2
					c0-0.571,0.081-1.118,0.205-1.647c0.476-2.642,2.68-4.723,5.501-5.194c1.328-0.369,2.575-0.92,3.685-1.658
					c1.944-1.292,3.48-3.099,4.437-5.207c0.104,0.866,0.186,1.742,0.22,2.64c0.016,0.415,0.042,0.827,0.042,1.248
					c0,2.038-0.2,4.001-0.548,5.872c0.775-0.078,1.466-0.403,2.019-0.887c0.055,0.394,0.12,0.786,0.12,1.196
					c0,3.029-1.496,5.693-3.774,7.345c-1.498,1.087-3.325,1.746-5.317,1.746c-1.111,0-2.162-0.228-3.146-0.593
					c-0.003-0.001-0.006-0.001-0.008-0.002c0.009,0.005,0.019,0.008,0.029,0.013c0.6,0.33,1.248,0.589,1.947,0.736
					c0.037,0.008,0.069,0.024,0.106,0.031c0.012,0.003,0.025,0.004,0.037,0.007c0.701,0.17,1.427,0.264,2.173,0.264
					c5.774,0,10.454-5.291,10.454-11.818C19.215,14.137,19.121,13.275,18.957,12.442z"/>
			</defs>
			<clipPath id="SVGID_2_">
				<use xlink:href="#SVGID_1_"  overflow="visible"/>
			</clipPath>
			<polygon clip-path="url(#SVGID_2_)" fill="#F4C21F" points="0.125,20.967 3.518,26.843 0.125,26.843 			"/>
			<polygon clip-path="url(#SVGID_2_)" fill="#F4C21F" points="0.125,20.62 3.718,26.843 3.518,26.843 0.125,20.967 			"/>
			<polygon clip-path="url(#SVGID_2_)" fill="#F4C11E" points="0.125,20.273 3.918,26.843 3.718,26.843 0.125,20.62 			"/>
			<polygon clip-path="url(#SVGID_2_)" fill="#F4C01E" points="0.125,19.926 4.119,26.843 3.918,26.843 0.125,20.273 			"/>
			<polygon clip-path="url(#SVGID_2_)" fill="#F4BF1E" points="0.125,19.579 4.319,26.843 4.119,26.843 0.125,19.926 			"/>
			<polygon clip-path="url(#SVGID_2_)" fill="#F4BE1E" points="0.125,19.232 4.519,26.843 4.319,26.843 0.125,19.579 			"/>
			<polygon clip-path="url(#SVGID_2_)" fill="#F4BD1E" points="0.125,18.885 4.72,26.843 4.519,26.843 0.125,19.232 			"/>
			<polygon clip-path="url(#SVGID_2_)" fill="#F4BC1E" points="0.125,18.538 4.92,26.843 4.72,26.843 0.125,18.885 			"/>
			<polygon clip-path="url(#SVGID_2_)" fill="#F4BB1E" points="0.125,18.191 5.121,26.843 4.92,26.843 0.125,18.538 			"/>
			<polygon clip-path="url(#SVGID_2_)" fill="#F4BA1E" points="0.125,17.844 5.321,26.843 5.121,26.843 0.125,18.191 			"/>
			<polygon clip-path="url(#SVGID_2_)" fill="#F4B91E" points="0.125,17.497 5.521,26.843 5.321,26.843 0.125,17.844 			"/>
			<polygon clip-path="url(#SVGID_2_)" fill="#F3B91E" points="0.125,17.149 5.722,26.843 5.521,26.843 0.125,17.497 			"/>
			<polygon clip-path="url(#SVGID_2_)" fill="#F3B81E" points="0.125,16.802 5.922,26.843 5.722,26.843 0.125,17.149 			"/>
			<polygon clip-path="url(#SVGID_2_)" fill="#F3B71D" points="0.125,16.455 6.122,26.843 5.922,26.843 0.125,16.802 			"/>
			<polygon clip-path="url(#SVGID_2_)" fill="#F3B61D" points="0.125,16.108 6.323,26.843 6.122,26.843 0.125,16.455 			"/>
			<polygon clip-path="url(#SVGID_2_)" fill="#F3B51D" points="0.125,15.761 6.523,26.843 6.323,26.843 0.125,16.108 			"/>
			<polygon clip-path="url(#SVGID_2_)" fill="#F3B41D" points="0.125,15.414 6.723,26.843 6.523,26.843 0.125,15.761 			"/>
			<polygon clip-path="url(#SVGID_2_)" fill="#F3B31D" points="0.125,15.067 6.924,26.843 6.723,26.843 0.125,15.414 			"/>
			<polygon clip-path="url(#SVGID_2_)" fill="#F3B21D" points="0.125,14.72 7.124,26.843 6.924,26.843 0.125,15.067 			"/>
			<polygon clip-path="url(#SVGID_2_)" fill="#F3B11D" points="0.125,14.373 7.324,26.843 7.124,26.843 0.125,14.72 			"/>
			<polygon clip-path="url(#SVGID_2_)" fill="#F3B01D" points="0.125,14.026 7.525,26.843 7.324,26.843 0.125,14.373 			"/>
			<polygon clip-path="url(#SVGID_2_)" fill="#F2AF1D" points="0.125,13.679 7.725,26.843 7.525,26.843 0.125,14.026 			"/>
			<polygon clip-path="url(#SVGID_2_)" fill="#F2AE1D" points="0.125,13.332 7.925,26.843 7.725,26.843 0.125,13.679 			"/>
			<polygon clip-path="url(#SVGID_2_)" fill="#F2AD1D" points="0.125,12.985 8.126,26.843 7.925,26.843 0.125,13.332 			"/>
			<polygon clip-path="url(#SVGID_2_)" fill="#F2AC1D" points="0.125,12.638 8.326,26.843 8.126,26.843 0.125,12.985 			"/>
			<polygon clip-path="url(#SVGID_2_)" fill="#F2AB1D" points="0.125,12.291 8.526,26.843 8.326,26.843 0.125,12.638 			"/>
			<polygon clip-path="url(#SVGID_2_)" fill="#F2AA1D" points="0.125,11.944 8.727,26.843 8.526,26.843 0.125,12.291 			"/>
			<polygon clip-path="url(#SVGID_2_)" fill="#F2A91D" points="0.125,11.597 8.927,26.843 8.727,26.843 0.125,11.944 			"/>
			<polygon clip-path="url(#SVGID_2_)" fill="#F2A81C" points="0.125,11.25 9.128,26.843 8.927,26.843 0.125,11.597 			"/>
			<polygon clip-path="url(#SVGID_2_)" fill="#F1A71C" points="0.125,10.903 9.328,26.843 9.128,26.843 0.125,11.25 			"/>
			<polygon clip-path="url(#SVGID_2_)" fill="#F1A61C" points="0.125,10.556 9.528,26.843 9.328,26.843 0.125,10.903 			"/>
			<polygon clip-path="url(#SVGID_2_)" fill="#F1A51C" points="0.125,10.209 9.729,26.843 9.528,26.843 0.125,10.556 			"/>
			<polygon clip-path="url(#SVGID_2_)" fill="#F1A41C" points="0.125,9.862 9.929,26.843 9.729,26.843 0.125,10.209 			"/>
			<polygon clip-path="url(#SVGID_2_)" fill="#F1A31C" points="0.125,9.515 10.129,26.843 9.929,26.843 0.125,9.862 			"/>
			<polygon clip-path="url(#SVGID_2_)" fill="#F1A31C" points="0.125,9.168 10.33,26.843 10.129,26.843 0.125,9.515 			"/>
			<polygon clip-path="url(#SVGID_2_)" fill="#F1A21C" points="0.125,8.821 10.53,26.843 10.33,26.843 0.125,9.168 			"/>
			<polygon clip-path="url(#SVGID_2_)" fill="#F1A11C" points="0.125,8.474 10.73,26.843 10.53,26.843 0.125,8.821 			"/>
			<polygon clip-path="url(#SVGID_2_)" fill="#F1A01C" points="0.125,8.127 10.931,26.843 10.73,26.843 0.125,8.474 			"/>
			<polygon clip-path="url(#SVGID_2_)" fill="#F19F1C" points="0.125,7.78 11.131,26.843 10.931,26.843 0.125,8.127 			"/>
			<polygon clip-path="url(#SVGID_2_)" fill="#F19E1C" points="0.125,7.433 11.331,26.843 11.131,26.843 0.125,7.78 			"/>
			<polygon clip-path="url(#SVGID_2_)" fill="#F19D1C" points="0.125,7.221 0.183,7.187 11.532,26.843 11.331,26.843 0.125,7.433 
							"/>
			<polygon clip-path="url(#SVGID_2_)" fill="#F09C1C" points="0.183,7.187 0.334,7.1 11.732,26.843 11.532,26.843 			"/>
			<polygon clip-path="url(#SVGID_2_)" fill="#F09B1B" points="0.334,7.1 0.484,7.014 11.932,26.843 11.732,26.843 			"/>
			<polygon clip-path="url(#SVGID_2_)" fill="#F09A1B" points="0.484,7.014 0.634,6.927 12.133,26.843 11.932,26.843 			"/>
			<polygon clip-path="url(#SVGID_2_)" fill="#F0991B" points="0.634,6.927 0.784,6.84 12.333,26.843 12.133,26.843 			"/>
			<polygon clip-path="url(#SVGID_2_)" fill="#F0981B" points="0.784,6.84 0.935,6.753 12.533,26.843 12.333,26.843 			"/>
			<polygon clip-path="url(#SVGID_2_)" fill="#F0971B" points="0.935,6.753 1.085,6.667 12.734,26.843 12.533,26.843 			"/>
			<polygon clip-path="url(#SVGID_2_)" fill="#F0961B" points="1.085,6.667 1.235,6.58 12.934,26.843 12.734,26.843 			"/>
			<polygon clip-path="url(#SVGID_2_)" fill="#F0951B" points="1.235,6.58 1.385,6.493 13.134,26.843 12.934,26.843 			"/>
			<polygon clip-path="url(#SVGID_2_)" fill="#F0941B" points="1.385,6.493 1.536,6.406 13.335,26.843 13.134,26.843 			"/>
			<polygon clip-path="url(#SVGID_2_)" fill="#F0941B" points="1.536,6.406 1.686,6.32 13.535,26.843 13.335,26.843 			"/>
			<polygon clip-path="url(#SVGID_2_)" fill="#EF931B" points="1.686,6.32 1.836,6.233 13.736,26.843 13.535,26.843 			"/>
			<polygon clip-path="url(#SVGID_2_)" fill="#EF921B" points="1.836,6.233 1.986,6.146 13.936,26.843 13.736,26.843 			"/>
			<polygon clip-path="url(#SVGID_2_)" fill="#EF911B" points="1.986,6.146 2.137,6.059 14.136,26.843 13.936,26.843 			"/>
			<polygon clip-path="url(#SVGID_2_)" fill="#EF901B" points="2.137,6.059 2.287,5.973 14.337,26.843 14.136,26.843 			"/>
			<polygon clip-path="url(#SVGID_2_)" fill="#EF8F1B" points="2.287,5.973 2.437,5.886 14.537,26.843 14.337,26.843 			"/>
			<polygon clip-path="url(#SVGID_2_)" fill="#EF8E1B" points="2.437,5.886 2.588,5.799 14.737,26.843 14.537,26.843 			"/>
			<polygon clip-path="url(#SVGID_2_)" fill="#EF8D1B" points="2.588,5.799 2.738,5.712 14.938,26.843 14.737,26.843 			"/>
			<polygon clip-path="url(#SVGID_2_)" fill="#EF8C1B" points="2.738,5.712 2.888,5.626 15.138,26.843 14.938,26.843 			"/>
			<polygon clip-path="url(#SVGID_2_)" fill="#EF8B1B" points="2.888,5.626 3.038,5.539 15.338,26.843 15.138,26.843 			"/>
			<polygon clip-path="url(#SVGID_2_)" fill="#EF8A1A" points="3.038,5.539 3.189,5.452 15.539,26.843 15.338,26.843 			"/>
			<polygon clip-path="url(#SVGID_2_)" fill="#EF891A" points="3.189,5.452 3.339,5.365 15.739,26.843 15.539,26.843 			"/>
			<polygon clip-path="url(#SVGID_2_)" fill="#EF881A" points="3.339,5.365 3.489,5.279 15.939,26.843 15.739,26.843 			"/>
			<polygon clip-path="url(#SVGID_2_)" fill="#EE881A" points="3.489,5.279 3.639,5.192 16.14,26.843 15.939,26.843 			"/>
			<polygon clip-path="url(#SVGID_2_)" fill="#EE871A" points="3.639,5.192 3.79,5.105 16.34,26.843 16.14,26.843 			"/>
			<polygon clip-path="url(#SVGID_2_)" fill="#EE861A" points="3.79,5.105 3.94,5.018 16.54,26.843 16.34,26.843 			"/>
			<polygon clip-path="url(#SVGID_2_)" fill="#EE851A" points="3.94,5.018 4.09,4.932 16.741,26.843 16.54,26.843 			"/>
			<polygon clip-path="url(#SVGID_2_)" fill="#EE841A" points="4.09,4.932 4.24,4.845 16.941,26.843 16.741,26.843 			"/>
			<polygon clip-path="url(#SVGID_2_)" fill="#EE831A" points="4.24,4.845 4.391,4.758 17.141,26.843 16.941,26.843 			"/>
			<polygon clip-path="url(#SVGID_2_)" fill="#EE821A" points="4.391,4.758 4.541,4.671 17.342,26.843 17.141,26.843 			"/>
			<polygon clip-path="url(#SVGID_2_)" fill="#EE811A" points="4.541,4.671 4.691,4.585 17.542,26.843 17.342,26.843 			"/>
			<polygon clip-path="url(#SVGID_2_)" fill="#EE801A" points="4.691,4.585 4.841,4.498 17.742,26.843 17.542,26.843 			"/>
			<polygon clip-path="url(#SVGID_2_)" fill="#EE7F1A" points="4.841,4.498 4.992,4.411 17.943,26.843 17.742,26.843 			"/>
			<polygon clip-path="url(#SVGID_2_)" fill="#EE7E1A" points="4.992,4.411 5.142,4.324 18.143,26.843 17.943,26.843 			"/>
			<polygon clip-path="url(#SVGID_2_)" fill="#ED7E1A" points="5.142,4.324 5.292,4.238 18.344,26.843 18.143,26.843 			"/>
			<polygon clip-path="url(#SVGID_2_)" fill="#ED7D1A" points="5.292,4.238 5.443,4.151 18.542,26.839 18.535,26.843 18.344,26.843 
							"/>
			
				<rect x="11.98" y="2.352" transform="matrix(-0.866 0.5 -0.5 -0.866 30.2434 22.7994)" clip-path="url(#SVGID_2_)" fill="#ED7C1A" width="0.174" height="26.198"/>
			
				<rect x="12.131" y="2.266" transform="matrix(-0.866 0.5 -0.5 -0.866 30.4805 22.5624)" clip-path="url(#SVGID_2_)" fill="#ED7B1A" width="0.174" height="26.198"/>
			
				<rect x="12.281" y="2.179" transform="matrix(-0.866 0.5 -0.5 -0.866 30.7175 22.3254)" clip-path="url(#SVGID_2_)" fill="#ED7A1A" width="0.174" height="26.198"/>
			
				<rect x="12.431" y="2.092" transform="matrix(-0.866 0.5 -0.5 -0.866 30.9545 22.0884)" clip-path="url(#SVGID_2_)" fill="#ED791A" width="0.174" height="26.198"/>
			<polygon clip-path="url(#SVGID_2_)" fill="#ED781A" points="6.044,3.804 6.194,3.717 19.215,26.271 19.215,26.45 19.143,26.492 
							"/>
			<polygon clip-path="url(#SVGID_2_)" fill="#ED771A" points="6.194,3.717 6.344,3.63 19.215,25.924 19.215,26.271 			"/>
			<polygon clip-path="url(#SVGID_2_)" fill="#ED771A" points="6.344,3.63 6.494,3.544 19.215,25.577 19.215,25.924 			"/>
			<polygon clip-path="url(#SVGID_2_)" fill="#ED761A" points="6.494,3.544 6.645,3.457 19.215,25.23 19.215,25.577 			"/>
			<polygon clip-path="url(#SVGID_2_)" fill="#ED7519" points="6.645,3.457 6.795,3.37 19.215,24.883 19.215,25.23 			"/>
			<polygon clip-path="url(#SVGID_2_)" fill="#ED7419" points="6.795,3.37 6.945,3.283 19.215,24.536 19.215,24.883 			"/>
			<polygon clip-path="url(#SVGID_2_)" fill="#ED7319" points="6.945,3.283 7.095,3.197 19.215,24.189 19.215,24.536 			"/>
			<polygon clip-path="url(#SVGID_2_)" fill="#EC7219" points="7.095,3.197 7.246,3.11 19.215,23.842 19.215,24.189 			"/>
			<polygon clip-path="url(#SVGID_2_)" fill="#EC7219" points="7.246,3.11 7.396,3.023 19.215,23.494 19.215,23.842 			"/>
			<polygon clip-path="url(#SVGID_2_)" fill="#EC7119" points="7.396,3.023 7.546,2.936 19.215,23.147 19.215,23.494 			"/>
			<polygon clip-path="url(#SVGID_2_)" fill="#EC7019" points="7.546,2.936 7.696,2.85 19.215,22.8 19.215,23.147 			"/>
			<polygon clip-path="url(#SVGID_2_)" fill="#EC6F19" points="7.696,2.85 7.847,2.763 19.215,22.453 19.215,22.8 			"/>
			<polygon clip-path="url(#SVGID_2_)" fill="#EC6E19" points="7.847,2.763 7.997,2.676 19.215,22.106 19.215,22.453 			"/>
			<polygon clip-path="url(#SVGID_2_)" fill="#EC6D19" points="7.997,2.676 8.147,2.589 19.215,21.759 19.215,22.106 			"/>
			<polygon clip-path="url(#SVGID_2_)" fill="#EC6D19" points="8.147,2.589 8.297,2.502 19.215,21.412 19.215,21.759 			"/>
			<polygon clip-path="url(#SVGID_2_)" fill="#EC6C19" points="8.297,2.502 8.448,2.416 19.215,21.065 19.215,21.412 			"/>
			<polygon clip-path="url(#SVGID_2_)" fill="#EC6B19" points="8.448,2.416 8.598,2.329 19.215,20.718 19.215,21.065 			"/>
			<polygon clip-path="url(#SVGID_2_)" fill="#EC6A19" points="8.598,2.329 8.748,2.242 19.215,20.371 19.215,20.718 			"/>
			<polygon clip-path="url(#SVGID_2_)" fill="#EC6919" points="8.748,2.242 8.899,2.155 19.215,20.024 19.215,20.371 			"/>
			<polygon clip-path="url(#SVGID_2_)" fill="#EC6919" points="8.899,2.155 9.049,2.069 19.215,19.677 19.215,20.024 			"/>
			<polygon clip-path="url(#SVGID_2_)" fill="#EC6819" points="9.049,2.069 9.199,1.982 19.215,19.33 19.215,19.677 			"/>
			<polygon clip-path="url(#SVGID_2_)" fill="#EC6719" points="9.199,1.982 9.349,1.895 19.215,18.983 19.215,19.33 			"/>
			<polygon clip-path="url(#SVGID_2_)" fill="#EB6619" points="9.349,1.895 9.5,1.808 19.215,18.636 19.215,18.983 			"/>
			<polygon clip-path="url(#SVGID_2_)" fill="#EB6619" points="9.5,1.808 9.65,1.722 19.215,18.289 19.215,18.636 			"/>
			<polygon clip-path="url(#SVGID_2_)" fill="#EB6519" points="9.65,1.722 9.8,1.635 19.215,17.942 19.215,18.289 			"/>
			<polygon clip-path="url(#SVGID_2_)" fill="#EB6419" points="9.8,1.635 9.95,1.548 19.215,17.595 19.215,17.942 			"/>
			<polygon clip-path="url(#SVGID_2_)" fill="#EB6319" points="9.95,1.548 10.101,1.461 19.215,17.248 19.215,17.595 			"/>
			<polygon clip-path="url(#SVGID_2_)" fill="#EB6319" points="10.101,1.461 10.251,1.375 19.215,16.901 19.215,17.248 			"/>
			<polygon clip-path="url(#SVGID_2_)" fill="#EB6219" points="10.251,1.375 10.401,1.288 19.215,16.554 19.215,16.901 			"/>
			<polygon clip-path="url(#SVGID_2_)" fill="#EB6119" points="10.401,1.288 10.551,1.201 19.215,16.207 19.215,16.554 			"/>
			<polygon clip-path="url(#SVGID_2_)" fill="#EB6019" points="10.551,1.201 10.702,1.114 19.215,15.86 19.215,16.207 			"/>
			<polygon clip-path="url(#SVGID_2_)" fill="#EB6019" points="10.702,1.114 10.852,1.028 19.215,15.513 19.215,15.86 			"/>
			<polygon clip-path="url(#SVGID_2_)" fill="#EB5F19" points="10.852,1.028 11.002,0.941 19.215,15.166 19.215,15.513 			"/>
			<polygon clip-path="url(#SVGID_2_)" fill="#EB5E19" points="11.002,0.941 11.152,0.854 19.215,14.819 19.215,15.166 			"/>
			<polygon clip-path="url(#SVGID_2_)" fill="#EB5D19" points="11.152,0.854 11.303,0.767 19.215,14.472 19.215,14.819 			"/>
			<polygon clip-path="url(#SVGID_2_)" fill="#EB5D19" points="11.303,0.767 11.453,0.681 19.215,14.125 19.215,14.472 			"/>
			<polygon clip-path="url(#SVGID_2_)" fill="#EB5C19" points="11.453,0.681 11.603,0.594 19.215,13.778 19.215,14.125 			"/>
			<polygon clip-path="url(#SVGID_2_)" fill="#EB5B19" points="11.603,0.594 11.753,0.507 19.215,13.431 19.215,13.778 			"/>
			<polygon clip-path="url(#SVGID_2_)" fill="#EB5B19" points="11.753,0.507 11.759,0.504 11.952,0.504 19.215,13.084 
				19.215,13.431 			"/>
			<polygon clip-path="url(#SVGID_2_)" fill="#EA5A19" points="12.152,0.504 19.215,12.737 19.215,13.084 11.952,0.504 			"/>
			<polygon clip-path="url(#SVGID_2_)" fill="#EA5A19" points="12.353,0.504 19.215,12.39 19.215,12.737 12.152,0.504 			"/>
			<polygon clip-path="url(#SVGID_2_)" fill="#EA5919" points="12.553,0.504 19.215,12.043 19.215,12.39 12.353,0.504 			"/>
			<polygon clip-path="url(#SVGID_2_)" fill="#EA5819" points="12.753,0.504 19.215,11.696 19.215,12.043 12.553,0.504 			"/>
			<polygon clip-path="url(#SVGID_2_)" fill="#EA5819" points="12.954,0.504 19.215,11.349 19.215,11.696 12.753,0.504 			"/>
			<polygon clip-path="url(#SVGID_2_)" fill="#EA5719" points="13.154,0.504 19.215,11.002 19.215,11.349 12.954,0.504 			"/>
			<polygon clip-path="url(#SVGID_2_)" fill="#EA5719" points="13.355,0.504 19.215,10.655 19.215,11.002 13.154,0.504 			"/>
			<polygon clip-path="url(#SVGID_2_)" fill="#EA5619" points="13.555,0.504 19.215,10.308 19.215,10.655 13.355,0.504 			"/>
			<polygon clip-path="url(#SVGID_2_)" fill="#EA5619" points="13.755,0.504 19.215,9.961 19.215,10.308 13.555,0.504 			"/>
			<polygon clip-path="url(#SVGID_2_)" fill="#EA5519" points="13.956,0.504 19.215,9.614 19.215,9.961 13.755,0.504 			"/>
			<polygon clip-path="url(#SVGID_2_)" fill="#EA5519" points="14.156,0.504 19.215,9.267 19.215,9.614 13.956,0.504 			"/>
			<polygon clip-path="url(#SVGID_2_)" fill="#EA5419" points="14.356,0.504 19.215,8.92 19.215,9.267 14.156,0.504 			"/>
			<polygon clip-path="url(#SVGID_2_)" fill="#EA5419" points="14.557,0.504 19.215,8.573 19.215,8.92 14.356,0.504 			"/>
			<polygon clip-path="url(#SVGID_2_)" fill="#EA5319" points="14.757,0.504 19.215,8.226 19.215,8.573 14.557,0.504 			"/>
			<polygon clip-path="url(#SVGID_2_)" fill="#EA5319" points="14.957,0.504 19.215,7.879 19.215,8.226 14.757,0.504 			"/>
			<polygon clip-path="url(#SVGID_2_)" fill="#EA5219" points="15.158,0.504 19.215,7.532 19.215,7.879 14.957,0.504 			"/>
			<polygon clip-path="url(#SVGID_2_)" fill="#EA5219" points="15.358,0.504 19.215,7.185 19.215,7.532 15.158,0.504 			"/>
			<polygon clip-path="url(#SVGID_2_)" fill="#EA5219" points="15.558,0.504 19.215,6.838 19.215,7.185 15.358,0.504 			"/>
			<polygon clip-path="url(#SVGID_2_)" fill="#EA5219" points="15.759,0.504 19.215,6.491 19.215,6.838 15.558,0.504 			"/>
			<polygon clip-path="url(#SVGID_2_)" fill="#EA5219" points="19.215,6.491 15.759,0.504 19.215,0.504 			"/>
		</g>
		<path fill="#F6BA47" d="M8.761,26.968c-0.73,0-1.471-0.09-2.202-0.268l-0.007-0.128l-0.026,0.122
			c-0.023-0.005-0.045-0.012-0.067-0.02c-0.013-0.004-0.026-0.009-0.039-0.012c-0.666-0.14-1.333-0.391-1.981-0.748l0-0.001
			c-0.001-0.001-0.003-0.001-0.004-0.002l0.075-0.237c1.059,0.391,2.103,0.588,3.115,0.588c1.878,0,3.691-0.595,5.243-1.721
			c2.331-1.691,3.722-4.399,3.722-7.244c0-0.324-0.043-0.646-0.088-0.957c-0.561,0.437-1.218,0.703-1.913,0.772l-0.166,0.017
			l0.03-0.164C14.816,15.019,15,13.051,15,11.117c0-0.298-0.014-0.59-0.026-0.883l-0.016-0.361c-0.026-0.685-0.08-1.393-0.17-2.198
			c-0.977,1.967-2.455,3.642-4.293,4.864c-1.102,0.731-2.354,1.295-3.722,1.675c-2.776,0.464-4.945,2.51-5.411,5.095
			c-0.137,0.588-0.203,1.118-0.203,1.625c0,0.693,0.119,1.4,0.363,2.163l0.259,0.81l-0.481-0.701C0.449,21.968,0,20.522,0,19.025
			c0-0.545,0.076-1.119,0.231-1.754c0.247-1.012,0.722-1.966,1.412-2.838c0.78-0.986,1.77-1.753,2.862-2.218l0.035-0.013
			c0.551-0.2,1.08-0.467,1.592-0.802c0.641-0.419,1.185-0.907,1.619-1.448l0.223-0.278v0.356c0.001,0.203-0.008,0.398-0.03,0.613
			c2.687-1.353,4.93-3.582,6.333-6.298c0.652-1.263,1.109-2.563,1.358-3.865l0.09-0.466l0.185,0.557
			c1.01,3.19,1.521,6.584,1.521,10.091c0,0.158-0.007,0.313-0.014,0.468c-0.005,0.106-0.01,0.213-0.012,0.321
			c-0.016,0.683-0.052,1.387-0.108,2.097c0.635-0.247,1.171-0.651,1.559-1.18l0.168-0.229l0.056,0.279
			c0.173,0.875,0.261,1.751,0.261,2.607C19.34,21.611,14.594,26.968,8.761,26.968z M6.617,26.458c0.712,0.172,1.434,0.26,2.144,0.26
			c5.696,0,10.33-5.246,10.33-11.693c0-0.752-0.069-1.522-0.206-2.292c-0.439,0.511-1.018,0.894-1.688,1.116l-0.18,0.06l0.016-0.189
			c0.065-0.77,0.107-1.536,0.124-2.275c0.003-0.109,0.007-0.218,0.012-0.326c0.007-0.151,0.014-0.303,0.014-0.457
			c0-3.352-0.471-6.6-1.399-9.661C15.514,2.168,15.084,3.33,14.5,4.46c-1.463,2.833-3.825,5.146-6.651,6.51l-0.208,0.1l0.03-0.229
			c0.021-0.166,0.037-0.317,0.046-0.459c-0.407,0.453-0.892,0.865-1.446,1.228c-0.528,0.346-1.074,0.622-1.623,0.821l-0.052,0.019
			c-1.045,0.445-2.001,1.186-2.755,2.14c-0.667,0.843-1.127,1.766-1.365,2.743C0.323,17.946,0.25,18.5,0.25,19.025
			c0,1.154,0.276,2.277,0.806,3.291c-0.099-0.473-0.147-0.93-0.147-1.382c0-0.527,0.068-1.075,0.208-1.675
			c0.482-2.683,2.734-4.81,5.602-5.289c1.33-0.37,2.558-0.922,3.637-1.639c1.922-1.277,3.441-3.06,4.392-5.154l0.185-0.406
			l0.054,0.443c0.12,0.996,0.19,1.838,0.222,2.65l0.016,0.359c0.013,0.296,0.026,0.592,0.026,0.894c0,1.895-0.175,3.82-0.521,5.727
			c0.655-0.098,1.269-0.385,1.783-0.836l0.174-0.152l0.056,0.396c0.048,0.337,0.098,0.686,0.098,1.047
			c0,2.925-1.43,5.709-3.826,7.446c-1.595,1.158-3.458,1.769-5.39,1.769c-0.354,0-0.711-0.023-1.071-0.069
			c0.008,0.002,0.016,0.005,0.024,0.007l0.011,0.129L6.617,26.458z"/>
	</g>
</g>
</svg>
