<?xml version="1.0" encoding="utf-8"?>
<!-- Generator: Adobe Illustrator 17.0.0, SVG Export Plug-In . SVG Version: 6.00 Build 0)  -->
<!DOCTYPE svg PUBLIC "-//W3C//DTD SVG 1.1//EN" "http://www.w3.org/Graphics/SVG/1.1/DTD/svg11.dtd">
<svg version="1.1" id="图层_1" xmlns="http://www.w3.org/2000/svg" xmlns:xlink="http://www.w3.org/1999/xlink" x="0px" y="0px"
	 width="30px" height="30px" viewBox="0 0 30 30" enable-background="new 0 0 30 30" xml:space="preserve">
<g>
	<rect x="0" fill="#F0B941" width="30" height="30"/>
	<g>
		<path fill="none" stroke="#FFFFFF" stroke-linecap="round" stroke-miterlimit="10" d="M20.299,21.402
			c-4.305,2.485-9.809,1.01-12.294-3.294C5.52,13.803,6.994,8.299,11.299,5.814"/>
		<circle fill="none" stroke="#FFFFFF" stroke-linecap="round" stroke-miterlimit="10" cx="15.799" cy="13.608" r="7.5"/>
		<g>
			<path fill="none" stroke="#FFFFFF" stroke-linecap="round" stroke-miterlimit="10" d="M18.525,6.625
				c-2.048-0.798-4.425-0.697-6.476,0.487c-2.051,1.184-3.327,3.191-3.66,5.363c1.939-0.239,3.863-0.862,5.663-1.9
				C15.848,9.538,17.35,8.184,18.525,6.625z"/>
			<path fill="none" stroke="#FFFFFF" stroke-linecap="round" stroke-miterlimit="10" d="M19.549,20.103
				c2.051-1.184,3.327-3.192,3.66-5.365c-1.938,0.239-3.861,0.862-5.658,1.899c-1.799,1.038-3.301,2.393-4.477,3.954
				C15.122,21.388,17.498,21.287,19.549,20.103z"/>
		</g>
		
			<ellipse transform="matrix(0.866 -0.5 0.5 0.866 -4.6872 9.7227)" fill="none" stroke="#FFFFFF" stroke-linecap="round" stroke-miterlimit="10" cx="15.799" cy="13.608" rx="3.75" ry="7.5"/>
		
			<line fill="none" stroke="#FFFFFF" stroke-linecap="round" stroke-miterlimit="10" x1="10.799" y1="4.947" x2="20.799" y2="22.268"/>
		
			<line fill="none" stroke="#FFFFFF" stroke-linecap="round" stroke-miterlimit="10" x1="9.304" y1="17.358" x2="22.294" y2="9.858"/>
		<polyline fill="none" stroke="#FFFFFF" stroke-linecap="round" stroke-miterlimit="10" points="11.275,24.983 14.275,24.983 
			14.275,22.597 		"/>
		<polyline fill="none" stroke="#FFFFFF" stroke-linecap="round" stroke-miterlimit="10" points="19.275,24.983 16.275,24.983 
			16.275,22.597 		"/>
	</g>
</g>
</svg>
