<?xml version="1.0" encoding="utf-8"?>
<!-- Generator: Adobe Illustrator 17.0.0, SVG Export Plug-In . SVG Version: 6.00 Build 0)  -->
<!DOCTYPE svg PUBLIC "-//W3C//DTD SVG 1.1//EN" "http://www.w3.org/Graphics/SVG/1.1/DTD/svg11.dtd">
<svg version="1.1" id="图层_1" xmlns="http://www.w3.org/2000/svg" xmlns:xlink="http://www.w3.org/1999/xlink" x="0px" y="0px"
	 width="40px" height="40px" viewBox="0 0 40 40" enable-background="new 0 0 40 40" xml:space="preserve">
<g>
	<rect fill="#F0B941" width="40" height="40"/>
	<g>
		<polygon fill="none" stroke="#FFFFFF" stroke-miterlimit="10" points="33.333,15 20,20.333 6.667,15 20,9.667 		"/>
		<polyline fill="none" stroke="#FFFFFF" stroke-miterlimit="10" points="13.333,28.333 13.333,17.667 19.383,15.247 		"/>
		<polygon fill="none" stroke="#FFFFFF" stroke-miterlimit="10" points="13.333,28.333 12.333,30.333 14.333,30.333 		"/>
		<path fill="none" stroke="#FFFFFF" stroke-miterlimit="10" d="M20.667,15c0,0.368-0.299,0.667-0.667,0.667l0,0
			c-0.369,0-0.667-0.299-0.667-0.667l0,0c0-0.368,0.298-0.667,0.667-0.667l0,0C20.368,14.333,20.667,14.632,20.667,15L20.667,15z"/>
		<g>
			<polyline fill="none" stroke="#FFFFFF" stroke-miterlimit="10" points="14.667,26.867 20,29 30,25 30,18.333 20,22.333 
				14.667,20.2 			"/>
			<polyline fill="none" stroke="#FFFFFF" stroke-miterlimit="10" points="14.667,24.705 20,26.839 28.667,23.372 20,26.839 
				14.667,24.705 			"/>
			<polyline fill="none" stroke="#FFFFFF" stroke-miterlimit="10" points="14.667,22.367 20,24.5 28.667,21.033 20,24.5 
				14.667,22.367 			"/>
		</g>
		<g>
			<polyline fill="none" stroke="#FFFFFF" stroke-miterlimit="10" points="12,23.639 12,23.639 10,22.839 			"/>
			<line fill="none" stroke="#FFFFFF" stroke-miterlimit="10" x1="10" y1="25" x2="12" y2="25.8"/>
			<polyline fill="none" stroke="#FFFFFF" stroke-miterlimit="10" points="12,21.3 12,21.3 10,20.5 			"/>
			<path fill="none" stroke="#FFFFFF" stroke-miterlimit="10" d="M12,23.639"/>
			<line fill="none" stroke="#FFFFFF" stroke-miterlimit="10" x1="12" y1="21.3" x2="12" y2="21.3"/>
			<line fill="none" stroke="#FFFFFF" stroke-miterlimit="10" x1="10" y1="18.333" x2="12" y2="19.133"/>
		</g>
	</g>
</g>
</svg>
